# Blender v3.2.2 OBJ File: 'car body.blend'
# www.blender.org
o Cube.003_Cube.007
v 21.282227 3.516387 7.581861
v 21.824812 3.516387 7.581861
v 21.282228 1.072958 7.581861
v 21.824814 1.072958 7.581861
v 21.282227 3.516387 8.999497
v 21.824812 3.516387 8.999497
v 21.282228 1.072958 8.999497
v 21.824814 1.072958 8.999497
v -6.785873 18.127634 8.998308
v -6.785873 17.224428 8.998308
v -6.785873 18.127636 -8.802814
v -6.785873 17.224430 -8.802814
v -38.917618 18.127634 8.998307
v -38.917618 17.224428 8.998307
v -38.917618 18.127636 -8.802814
v -38.917618 17.224430 -8.802814
v -11.078335 18.025770 10.168547
v -11.078335 18.025770 8.969398
v -39.189346 18.025774 10.168546
v -39.189346 18.025774 8.969397
v -11.078339 0.221728 10.168546
v -11.078339 0.221729 8.969397
v -39.189346 0.221731 10.168545
v -39.189346 0.221732 8.969396
v -10.923943 -0.000001 -10.164329
v -39.355980 -0.000004 -10.164325
v -10.923943 0.115369 -10.164329
v -39.355980 0.115366 -10.164325
v -10.923943 -0.000001 10.243613
v -39.355972 -0.000004 10.243614
v -10.923943 0.115369 10.243613
v -39.355972 0.115366 10.243614
v 8.612163 18.272703 -9.874623
v 8.612163 20.061710 -9.874627
v 8.612162 18.272701 9.920511
v 8.612161 20.061708 9.920511
v -2.096142 18.272699 -9.874623
v -2.096142 20.061708 -9.874623
v -2.096140 18.272699 9.920511
v -2.096140 20.061708 9.920511
v 19.862900 -0.048077 10.104838
v 19.862900 11.416128 10.104838
v 19.862902 -0.048075 -9.872281
v 19.862900 11.416128 -9.872281
v 10.122866 -0.048079 10.104838
v 10.122866 11.416126 10.104838
v 10.122868 -0.048075 -9.872281
v 10.122868 11.416128 -9.872281
v 0.033194 -0.000003 -10.164325
v 0.033190 18.127647 -10.164327
v 0.033192 -0.000001 10.168550
v 0.033192 18.127645 10.168549
v -39.517029 -0.000004 -10.164325
v -39.517029 18.127647 -10.164325
v -39.517021 -0.000002 10.168549
v -39.517021 18.127645 10.168548
v 10.189885 0.027555 -9.964105
v 10.189885 1.230889 -9.964105
v 10.189883 0.027555 10.379675
v 10.189883 1.230890 10.379675
v 0.067871 0.027555 -9.964107
v 0.067867 1.230889 -9.964107
v 0.067867 0.027555 10.379675
v 0.067867 1.230889 10.379675
v 19.831562 11.149193 -9.869042
v 8.396596 20.027489 -9.869042
v 19.831562 11.149193 -8.839431
v 8.396596 20.027489 -8.839429
v 19.231874 10.376812 -9.869042
v 7.796902 19.255112 -9.869042
v 19.231874 10.376812 -8.839431
v 7.796902 19.255112 -8.839429
v 19.831568 11.149193 8.890897
v 8.396595 20.027491 8.890899
v 19.831568 11.149193 9.920509
v 8.396594 20.027491 9.920511
v 19.231874 10.376814 8.890897
v 7.796910 19.255110 8.890898
v 19.231874 10.376814 9.920509
v 7.796910 19.255110 9.920510
v 11.820303 10.676144 -9.866433
v 8.131269 19.334473 -9.866433
v 11.820303 10.676144 -8.880029
v 8.131269 19.334473 -8.880029
v 10.844754 10.260492 -9.866433
v 7.155720 18.918823 -9.866433
v 10.844754 10.260492 -8.880029
v 7.155720 18.918823 -8.880029
v 11.820301 10.676142 8.984059
v 8.131268 19.334471 8.984060
v 11.820301 10.676142 9.970465
v 8.131268 19.334471 9.970465
v 10.844752 10.260493 8.984059
v 7.155726 18.918825 8.984059
v 10.844752 10.260493 9.970465
v 7.155726 18.918825 9.970465
v -10.923943 -0.000003 -10.164325
v -10.923943 18.127647 -10.164327
v -10.923943 -0.000001 10.168549
v -10.923939 18.127645 10.168548
v -11.078335 18.025772 -8.867593
v -11.078335 18.025772 -10.066743
v -39.189346 18.025772 -8.867593
v -39.189346 18.025772 -10.066743
v -11.078339 0.221730 -8.867595
v -11.078339 0.221730 -10.066745
v -39.189346 0.221729 -8.867595
v -39.189346 0.221730 -10.066745
v 19.862898 11.314308 -9.711141
v 20.589848 11.314308 -9.711141
v 19.862898 0.206322 -9.711141
v 20.589848 0.206322 -9.711141
v 19.862896 11.314306 9.977076
v 20.589846 11.314306 9.977076
v 19.862896 0.206320 9.977075
v 20.589848 0.206320 9.977075
v 20.589846 10.749886 -8.863696
v 21.282225 10.749886 -8.863696
v 20.589848 0.681459 -8.863696
v 21.282227 0.681459 -8.863696
v 20.589846 10.749884 9.449970
v 21.282225 10.749884 9.449970
v 20.589846 0.681458 9.449969
v 21.282225 0.681458 9.449969
v 21.282228 3.516387 -8.498874
v 21.824814 3.516387 -8.498874
v 21.282228 1.072958 -8.498874
v 21.824814 1.072958 -8.498874
v 21.282228 3.516387 -7.081237
v 21.824814 3.516387 -7.081237
v 21.282228 1.072958 -7.081237
v 21.824814 1.072958 -7.081237
vt 0.625000 0.000000
vt 0.375000 0.250000
vt 0.375000 0.000000
vt 0.625000 0.250000
vt 0.375000 0.500000
vt 0.625000 0.500000
vt 0.375000 0.750000
vt 0.625000 0.750000
vt 0.375000 1.000000
vt 0.125000 0.750000
vt 0.125000 0.500000
vt 0.875000 0.500000
vt 0.625000 0.000000
vt 0.375000 0.250000
vt 0.375000 0.000000
vt 0.625000 0.250000
vt 0.375000 0.500000
vt 0.625000 0.500000
vt 0.375000 0.750000
vt 0.625000 0.750000
vt 0.375000 1.000000
vt 0.125000 0.750000
vt 0.125000 0.500000
vt 0.875000 0.500000
vt 0.625000 0.000000
vt 0.375000 0.250000
vt 0.375000 0.000000
vt 0.625000 0.250000
vt 0.375000 0.500000
vt 0.625000 0.500000
vt 0.375000 0.750000
vt 0.625000 0.750000
vt 0.375000 1.000000
vt 0.125000 0.750000
vt 0.125000 0.500000
vt 0.875000 0.750000
vt 0.625000 0.000000
vt 0.375000 0.250000
vt 0.375000 0.000000
vt 0.625000 0.250000
vt 0.375000 0.500000
vt 0.625000 0.750000
vt 0.375000 0.750000
vt 0.625000 1.000000
vt 0.375000 1.000000
vt 0.125000 0.750000
vt 0.125000 0.500000
vt 0.625000 0.500000
vt 0.875000 0.750000
vt 0.375000 0.000000
vt 0.625000 0.250000
vt 0.375000 0.250000
vt 0.375000 0.500000
vt 0.625000 0.500000
vt 0.375000 0.750000
vt 0.625000 0.750000
vt 0.375000 1.000000
vt 0.125000 0.750000
vt 0.125000 0.500000
vt 0.875000 0.500000
vt 0.625000 0.000000
vt 0.375000 0.250000
vt 0.375000 0.000000
vt 0.625000 0.250000
vt 0.375000 0.500000
vt 0.625000 0.500000
vt 0.375000 0.750000
vt 0.625000 0.750000
vt 0.375000 1.000000
vt 0.125000 0.750000
vt 0.125000 0.500000
vt 0.875000 0.500000
vt 0.625000 0.000000
vt 0.375000 0.250000
vt 0.375000 0.000000
vt 0.625000 0.500000
vt 0.375000 0.500000
vt 0.375000 0.750000
vt 0.375000 0.750000
vt 0.625000 0.750000
vt 0.375000 1.000000
vt 0.125000 0.750000
vt 0.125000 0.500000
vt 0.875000 0.750000
vt 0.375000 0.000000
vt 0.625000 0.250000
vt 0.375000 0.250000
vt 0.375000 0.500000
vt 0.625000 0.500000
vt 0.375000 0.750000
vt 0.625000 1.000000
vt 0.375000 1.000000
vt 0.125000 0.500000
vt 0.125000 0.750000
vt 0.875000 0.500000
vt 0.625000 0.750000
vt 0.625000 0.000000
vt 0.375000 0.250000
vt 0.375000 0.000000
vt 0.625000 0.250000
vt 0.375000 0.500000
vt 0.625000 0.500000
vt 0.375000 0.750000
vt 0.625000 1.000000
vt 0.375000 1.000000
vt 0.125000 0.750000
vt 0.125000 0.500000
vt 0.875000 0.500000
vt 0.625000 0.750000
vt 0.625000 0.000000
vt 0.375000 0.250000
vt 0.375000 0.000000
vt 0.625000 0.500000
vt 0.375000 0.500000
vt 0.375000 0.750000
vt 0.625000 0.750000
vt 0.375000 1.000000
vt 0.125000 0.750000
vt 0.125000 0.500000
vt 0.875000 0.500000
vt 0.625000 0.000000
vt 0.375000 0.250000
vt 0.375000 0.000000
vt 0.625000 0.250000
vt 0.375000 0.500000
vt 0.625000 0.500000
vt 0.375000 0.750000
vt 0.625000 0.750000
vt 0.375000 1.000000
vt 0.125000 0.750000
vt 0.125000 0.500000
vt 0.875000 0.500000
vt 0.625000 0.000000
vt 0.375000 0.250000
vt 0.375000 0.000000
vt 0.625000 0.250000
vt 0.375000 0.500000
vt 0.625000 0.500000
vt 0.375000 0.750000
vt 0.625000 0.750000
vt 0.375000 1.000000
vt 0.125000 0.750000
vt 0.125000 0.500000
vt 0.875000 0.500000
vt 0.625000 0.500000
vt 0.375000 0.500000
vt 0.625000 0.750000
vt 0.625000 0.000000
vt 0.375000 0.250000
vt 0.375000 0.000000
vt 0.625000 0.250000
vt 0.375000 0.500000
vt 0.625000 0.500000
vt 0.375000 0.750000
vt 0.625000 0.750000
vt 0.375000 1.000000
vt 0.125000 0.750000
vt 0.125000 0.500000
vt 0.875000 0.500000
vt 0.625000 0.000000
vt 0.375000 0.250000
vt 0.375000 0.000000
vt 0.625000 0.250000
vt 0.375000 0.500000
vt 0.625000 0.500000
vt 0.375000 0.750000
vt 0.625000 0.750000
vt 0.375000 1.000000
vt 0.125000 0.750000
vt 0.125000 0.500000
vt 0.875000 0.500000
vt 0.625000 0.000000
vt 0.375000 0.250000
vt 0.375000 0.000000
vt 0.625000 0.250000
vt 0.375000 0.500000
vt 0.625000 0.500000
vt 0.375000 0.750000
vt 0.625000 0.750000
vt 0.375000 1.000000
vt 0.125000 0.750000
vt 0.125000 0.500000
vt 0.875000 0.500000
vt 0.625000 0.000000
vt 0.375000 0.250000
vt 0.375000 0.000000
vt 0.625000 0.250000
vt 0.375000 0.500000
vt 0.625000 0.500000
vt 0.375000 0.750000
vt 0.625000 0.750000
vt 0.375000 1.000000
vt 0.125000 0.750000
vt 0.125000 0.500000
vt 0.875000 0.500000
vt 0.625000 1.000000
vt 0.875000 0.750000
vt 0.625000 1.000000
vt 0.875000 0.750000
vt 0.625000 1.000000
vt 0.875000 0.500000
vt 0.875000 0.500000
vt 0.625000 0.000000
vt 0.625000 1.000000
vt 0.875000 0.750000
vt 0.625000 1.000000
vt 0.875000 0.750000
vt 0.625000 0.250000
vt 0.625000 1.000000
vt 0.875000 0.500000
vt 0.625000 0.000000
vt 0.875000 0.750000
vt 0.875000 0.750000
vt 0.625000 0.250000
vt 0.625000 1.000000
vt 0.875000 0.750000
vt 0.625000 1.000000
vt 0.875000 0.750000
vt 0.625000 1.000000
vt 0.875000 0.750000
vt 0.625000 1.000000
vt 0.875000 0.750000
vt 0.625000 1.000000
vt 0.875000 0.750000
vt 0.625000 1.000000
vt 0.875000 0.750000
vt 0.625000 1.000000
vt 0.875000 0.750000
vn 0.0000 0.0000 -1.0000
vn 0.0000 -1.0000 -0.0000
vn 0.0000 0.0000 1.0000
vn 0.0000 1.0000 0.0000
vn -1.0000 -0.0000 -0.0000
vn 1.0000 0.0000 0.0000
vn 0.6133 0.7899 0.0000
vn -0.6133 -0.7899 0.0000
vn 0.7899 -0.6133 0.0000
vn -0.7899 0.6133 0.0000
vn 0.9200 0.3920 0.0000
vn -0.9200 -0.3920 0.0000
vn 0.3920 -0.9200 0.0000
vn -0.3920 0.9200 0.0000
s off
f 2/1/1 3/2/1 1/3/1
f 4/4/2 7/5/2 3/2/2
f 8/6/3 5/7/3 7/5/3
f 6/8/4 1/9/4 5/7/4
f 7/5/5 1/10/5 3/11/5
f 4/12/6 6/8/6 8/6/6
f 10/13/6 11/14/6 9/15/6
f 12/16/1 15/17/1 11/14/1
f 16/18/5 13/19/5 15/17/5
f 14/20/3 9/21/3 13/19/3
f 15/17/4 9/22/4 11/23/4
f 12/24/2 14/20/2 16/18/2
f 18/25/4 19/26/4 17/27/4
f 20/28/5 23/29/5 19/26/5
f 24/30/2 21/31/2 23/29/2
f 22/32/6 17/33/6 21/31/6
f 23/29/3 17/34/3 19/35/3
f 24/30/1 18/36/1 22/32/1
f 26/37/1 27/38/1 25/39/1
f 28/40/4 31/41/4 27/38/4
f 31/41/3 30/42/3 29/43/3
f 29/43/2 26/44/2 25/45/2
f 31/41/6 25/46/6 27/47/6
f 32/48/5 26/49/5 30/42/5
f 33/50/6 36/51/6 35/52/6
f 36/51/3 39/53/3 35/52/3
f 40/54/5 37/55/5 39/53/5
f 38/56/1 33/57/1 37/55/1
f 39/53/2 33/58/2 35/59/2
f 36/60/4 38/56/4 40/54/4
f 42/61/5 43/62/5 41/63/5
f 44/64/3 47/65/3 43/62/3
f 48/66/6 45/67/6 47/65/6
f 46/68/1 41/69/1 45/67/1
f 47/65/4 41/70/4 43/71/4
f 44/72/2 46/68/2 48/66/2
f 50/73/6 51/74/6 49/75/6
f 51/74/3 56/76/3 55/77/3
f 55/77/4 97/78/4 53/79/4
f 54/80/1 49/81/1 53/79/1
f 55/77/2 49/82/2 51/83/2
f 56/76/4 50/84/4 54/80/4
f 57/85/6 60/86/6 59/87/6
f 60/86/3 63/88/3 59/87/3
f 64/89/5 61/90/5 63/88/5
f 61/90/1 58/91/1 57/92/1
f 59/93/2 61/90/2 57/94/2
f 60/95/4 62/96/4 64/89/4
f 66/97/7 67/98/7 65/99/7
f 68/100/3 71/101/3 67/98/3
f 72/102/8 69/103/8 71/101/8
f 69/103/1 66/104/1 65/105/1
f 71/101/9 65/106/9 67/107/9
f 68/108/10 70/109/10 72/102/10
f 74/110/7 75/111/7 73/112/7
f 75/111/3 80/113/3 79/114/3
f 80/113/8 77/115/8 79/114/8
f 78/116/1 73/117/1 77/115/1
f 79/114/9 73/118/9 75/119/9
f 76/120/10 78/116/10 80/113/10
f 82/121/11 83/122/11 81/123/11
f 84/124/3 87/125/3 83/122/3
f 88/126/12 85/127/12 87/125/12
f 86/128/1 81/129/1 85/127/1
f 87/125/13 81/130/13 83/131/13
f 84/132/14 86/128/14 88/126/14
f 90/133/11 91/134/11 89/135/11
f 92/136/3 95/137/3 91/134/3
f 96/138/12 93/139/12 95/137/12
f 94/140/1 89/141/1 93/139/1
f 95/137/13 89/142/13 91/143/13
f 92/144/14 94/140/14 96/138/14
f 100/145/5 97/78/5 99/146/5
f 54/80/2 100/145/2 56/76/2
f 56/76/1 99/146/1 55/77/1
f 53/79/3 98/147/3 54/80/3
f 102/148/4 103/149/4 101/150/4
f 104/151/5 107/152/5 103/149/5
f 108/153/2 105/154/2 107/152/2
f 106/155/6 101/156/6 105/154/6
f 107/152/3 101/157/3 103/158/3
f 104/159/1 106/155/1 108/153/1
f 110/160/1 111/161/1 109/162/1
f 112/163/2 115/164/2 111/161/2
f 116/165/3 113/166/3 115/164/3
f 114/167/4 109/168/4 113/166/4
f 115/164/5 109/169/5 111/170/5
f 112/171/6 114/167/6 116/165/6
f 118/172/1 119/173/1 117/174/1
f 120/175/2 123/176/2 119/173/2
f 124/177/3 121/178/3 123/176/3
f 122/179/4 117/180/4 121/178/4
f 123/176/5 117/181/5 119/182/5
f 120/183/6 122/179/6 124/177/6
f 126/184/1 127/185/1 125/186/1
f 128/187/2 131/188/2 127/185/2
f 132/189/3 129/190/3 131/188/3
f 130/191/4 125/192/4 129/190/4
f 131/188/5 125/193/5 127/194/5
f 128/195/6 130/191/6 132/189/6
f 2/1/1 4/4/1 3/2/1
f 4/4/2 8/6/2 7/5/2
f 8/6/3 6/8/3 5/7/3
f 6/8/4 2/196/4 1/9/4
f 7/5/5 5/7/5 1/10/5
f 4/12/6 2/197/6 6/8/6
f 10/13/6 12/16/6 11/14/6
f 12/16/1 16/18/1 15/17/1
f 16/18/5 14/20/5 13/19/5
f 14/20/3 10/198/3 9/21/3
f 15/17/4 13/19/4 9/22/4
f 12/24/2 10/199/2 14/20/2
f 18/25/4 20/28/4 19/26/4
f 20/28/5 24/30/5 23/29/5
f 24/30/2 22/32/2 21/31/2
f 22/32/6 18/200/6 17/33/6
f 23/29/3 21/31/3 17/34/3
f 24/30/1 20/201/1 18/36/1
f 26/37/1 28/40/1 27/38/1
f 28/40/4 32/48/4 31/41/4
f 31/41/3 32/48/3 30/42/3
f 29/43/2 30/42/2 26/44/2
f 31/41/6 29/43/6 25/46/6
f 32/48/5 28/202/5 26/49/5
f 33/50/6 34/203/6 36/51/6
f 36/51/3 40/54/3 39/53/3
f 40/54/5 38/56/5 37/55/5
f 38/56/1 34/204/1 33/57/1
f 39/53/2 37/55/2 33/58/2
f 36/60/4 34/205/4 38/56/4
f 42/61/5 44/64/5 43/62/5
f 44/64/3 48/66/3 47/65/3
f 48/66/6 46/68/6 45/67/6
f 46/68/1 42/206/1 41/69/1
f 47/65/4 45/67/4 41/70/4
f 44/72/2 42/207/2 46/68/2
f 50/73/6 52/208/6 51/74/6
f 51/74/3 52/208/3 56/76/3
f 55/77/4 99/146/4 97/78/4
f 54/80/1 50/209/1 49/81/1
f 55/77/2 53/79/2 49/82/2
f 56/76/4 52/210/4 50/84/4
f 57/85/6 58/211/6 60/86/6
f 60/86/3 64/89/3 63/88/3
f 64/89/5 62/96/5 61/90/5
f 61/90/1 62/96/1 58/91/1
f 59/93/2 63/88/2 61/90/2
f 60/95/4 58/212/4 62/96/4
f 66/97/7 68/100/7 67/98/7
f 68/100/3 72/102/3 71/101/3
f 72/102/8 70/109/8 69/103/8
f 69/103/1 70/109/1 66/104/1
f 71/101/9 69/103/9 65/106/9
f 68/108/10 66/213/10 70/109/10
f 74/110/7 76/214/7 75/111/7
f 75/111/3 76/214/3 80/113/3
f 80/113/8 78/116/8 77/115/8
f 78/116/1 74/215/1 73/117/1
f 79/114/9 77/115/9 73/118/9
f 76/120/10 74/216/10 78/116/10
f 82/121/11 84/124/11 83/122/11
f 84/124/3 88/126/3 87/125/3
f 88/126/12 86/128/12 85/127/12
f 86/128/1 82/217/1 81/129/1
f 87/125/13 85/127/13 81/130/13
f 84/132/14 82/218/14 86/128/14
f 90/133/11 92/136/11 91/134/11
f 92/136/3 96/138/3 95/137/3
f 96/138/12 94/140/12 93/139/12
f 94/140/1 90/219/1 89/141/1
f 95/137/13 93/139/13 89/142/13
f 92/144/14 90/220/14 94/140/14
f 100/145/5 98/147/5 97/78/5
f 54/80/2 98/147/2 100/145/2
f 56/76/1 100/145/1 99/146/1
f 53/79/3 97/78/3 98/147/3
f 102/148/4 104/151/4 103/149/4
f 104/151/5 108/153/5 107/152/5
f 108/153/2 106/155/2 105/154/2
f 106/155/6 102/221/6 101/156/6
f 107/152/3 105/154/3 101/157/3
f 104/159/1 102/222/1 106/155/1
f 110/160/1 112/163/1 111/161/1
f 112/163/2 116/165/2 115/164/2
f 116/165/3 114/167/3 113/166/3
f 114/167/4 110/223/4 109/168/4
f 115/164/5 113/166/5 109/169/5
f 112/171/6 110/224/6 114/167/6
f 118/172/1 120/175/1 119/173/1
f 120/175/2 124/177/2 123/176/2
f 124/177/3 122/179/3 121/178/3
f 122/179/4 118/225/4 117/180/4
f 123/176/5 121/178/5 117/181/5
f 120/183/6 118/226/6 122/179/6
f 126/184/1 128/187/1 127/185/1
f 128/187/2 132/189/2 131/188/2
f 132/189/3 130/191/3 129/190/3
f 130/191/4 126/227/4 125/192/4
f 131/188/5 129/190/5 125/193/5
f 128/195/6 126/228/6 130/191/6
o Cube.005_Cube.009
v 0.000000 0.000000 0.000000
v 0.000000 0.000000 0.000000
v 0.000000 0.000000 0.000000
v 0.000000 0.000000 0.000000
v 0.000000 0.000000 0.000000
v 0.000000 0.000000 0.000000
v 0.000000 0.000000 0.000000
v 0.000000 0.000000 0.000000
vt 0.375000 0.000000
vt 0.625000 0.250000
vt 0.375000 0.250000
vt 0.625000 0.500000
vt 0.375000 0.500000
vt 0.625000 0.750000
vt 0.375000 0.750000
vt 0.625000 1.000000
vt 0.375000 1.000000
vt 0.125000 0.500000
vt 0.125000 0.750000
vt 0.875000 0.750000
vt 0.625000 0.000000
vt 0.875000 0.500000
vn 0.0000 0.0000 1.0000
s off
f 133/229/15 136/230/15 135/231/15
f 135/231/15 140/232/15 139/233/15
f 139/233/15 138/234/15 137/235/15
f 137/235/15 134/236/15 133/237/15
f 135/238/15 137/235/15 133/239/15
f 140/232/15 134/240/15 138/234/15
f 133/229/15 134/241/15 136/230/15
f 135/231/15 136/230/15 140/232/15
f 139/233/15 140/232/15 138/234/15
f 137/235/15 138/234/15 134/236/15
f 135/238/15 139/233/15 137/235/15
f 140/232/15 136/242/15 134/240/15
