# Blender v3.2.2 OBJ File: 'propeller.blend'
# www.blender.org
o Cylinder_Cylinder.001
v -25.394882 0.712521 -0.074224
v -26.533213 0.712521 -0.074224
v -25.394882 0.698763 0.073329
v -26.533211 0.698763 0.073329
v -25.394882 0.658017 0.215211
v -26.533211 0.658017 0.215211
v -25.394882 0.591848 0.345971
v -26.533211 0.591848 0.345971
v -25.394882 0.502801 0.460583
v -26.533211 0.502801 0.460583
v -25.394882 0.394296 0.554642
v -26.533211 0.394296 0.554642
v -25.394882 0.270504 0.624534
v -26.533211 0.270504 0.624534
v -25.394882 0.136182 0.667574
v -26.533211 0.136182 0.667574
v -25.394880 -0.003509 0.682107
v -26.533211 -0.003509 0.682107
v -25.394880 -0.143199 0.667574
v -26.533211 -0.143199 0.667574
v -25.394880 -0.277521 0.624534
v -26.533211 -0.277521 0.624534
v -25.394880 -0.401313 0.554642
v -26.533211 -0.401313 0.554642
v -25.394880 -0.509818 0.460583
v -26.533211 -0.509818 0.460583
v -25.394880 -0.598866 0.345971
v -26.533211 -0.598866 0.345971
v -25.394880 -0.665034 0.215211
v -26.533211 -0.665034 0.215211
v -25.394880 -0.705780 0.073329
v -26.533211 -0.705780 0.073329
v -25.394880 -0.719538 -0.074224
v -26.533211 -0.719538 -0.074224
v -25.394882 -0.705780 -0.221777
v -26.533211 -0.705780 -0.221777
v -25.394882 -0.665034 -0.363659
v -26.533211 -0.665034 -0.363659
v -25.394882 -0.598865 -0.494419
v -26.533211 -0.598865 -0.494419
v -25.394882 -0.509818 -0.609030
v -26.533211 -0.509818 -0.609030
v -25.394882 -0.401313 -0.703090
v -26.533211 -0.401313 -0.703090
v -25.394882 -0.277521 -0.772982
v -26.533211 -0.277521 -0.772982
v -25.394882 -0.143199 -0.816022
v -26.533211 -0.143199 -0.816022
v -25.394882 -0.003509 -0.830554
v -26.533213 -0.003509 -0.830554
v -25.394882 0.136182 -0.816022
v -26.533213 0.136182 -0.816022
v -25.394882 0.270504 -0.772982
v -26.533213 0.270504 -0.772982
v -25.394882 0.394296 -0.703090
v -26.533213 0.394296 -0.703090
v -25.394882 0.502801 -0.609030
v -26.533213 0.502801 -0.609030
v -25.394882 0.591848 -0.494419
v -26.533213 0.591848 -0.494419
v -25.394882 0.658017 -0.363659
v -26.533213 0.658017 -0.363659
v -25.394882 0.698763 -0.221777
v -26.533213 0.698763 -0.221777
vt 1.000000 1.000000
vt 0.968750 0.500000
vt 1.000000 0.500000
vt 0.968750 1.000000
vt 0.937500 0.500000
vt 0.937500 1.000000
vt 0.906250 0.500000
vt 0.906250 1.000000
vt 0.875000 0.500000
vt 0.875000 1.000000
vt 0.843750 0.500000
vt 0.843750 1.000000
vt 0.812500 0.500000
vt 0.812500 1.000000
vt 0.781250 0.500000
vt 0.781250 1.000000
vt 0.750000 0.500000
vt 0.750000 1.000000
vt 0.718750 0.500000
vt 0.718750 1.000000
vt 0.687500 0.500000
vt 0.687500 1.000000
vt 0.656250 0.500000
vt 0.656250 1.000000
vt 0.625000 0.500000
vt 0.625000 1.000000
vt 0.593750 0.500000
vt 0.593750 1.000000
vt 0.562500 0.500000
vt 0.562500 1.000000
vt 0.531250 0.500000
vt 0.531250 1.000000
vt 0.500000 0.500000
vt 0.500000 1.000000
vt 0.468750 0.500000
vt 0.468750 1.000000
vt 0.437500 0.500000
vt 0.437500 1.000000
vt 0.406250 0.500000
vt 0.406250 1.000000
vt 0.375000 0.500000
vt 0.375000 1.000000
vt 0.343750 0.500000
vt 0.343750 1.000000
vt 0.312500 0.500000
vt 0.312500 1.000000
vt 0.281250 0.500000
vt 0.281250 1.000000
vt 0.250000 0.500000
vt 0.250000 1.000000
vt 0.218750 0.500000
vt 0.218750 1.000000
vt 0.187500 0.500000
vt 0.187500 1.000000
vt 0.156250 0.500000
vt 0.156250 1.000000
vt 0.125000 0.500000
vt 0.125000 1.000000
vt 0.093750 0.500000
vt 0.093750 1.000000
vt 0.062500 0.500000
vt 0.419706 0.419706
vt 0.383337 0.449553
vt 0.419706 0.080294
vt 0.062500 1.000000
vt 0.031250 0.500000
vt 0.031250 1.000000
vt 0.000000 0.500000
vt 0.616663 0.449553
vt 0.658156 0.471731
vt 0.616663 0.050447
vt 0.341844 0.471731
vt 0.296822 0.485388
vt 0.296822 0.014612
vt 0.250000 0.490000
vt 0.250000 0.010000
vt 0.203178 0.485388
vt 0.203178 0.014612
vt 0.158156 0.471731
vt 0.158156 0.028269
vt 0.116663 0.449553
vt 0.080294 0.419706
vt 0.116663 0.050447
vt 0.050447 0.383337
vt 0.080294 0.080294
vt 0.028269 0.341844
vt 0.050447 0.116663
vt 0.014612 0.296822
vt 0.014612 0.203178
vt 0.010000 0.250000
vt 0.028269 0.158156
vt 0.341844 0.028269
vt 0.383337 0.050447
vt 0.449553 0.116663
vt 0.471731 0.158156
vt 0.449553 0.383337
vt 0.485388 0.203178
vt 0.471731 0.341844
vt 0.490000 0.250000
vt 0.485388 0.296822
vt 0.000000 1.000000
vt 0.703178 0.485388
vt 0.750000 0.490000
vt 0.750000 0.010000
vt 0.796822 0.485388
vt 0.796822 0.014612
vt 0.841844 0.471731
vt 0.883337 0.449553
vt 0.841844 0.028269
vt 0.919706 0.419706
vt 0.919706 0.080294
vt 0.949553 0.383337
vt 0.949553 0.116663
vt 0.971731 0.341844
vt 0.985388 0.296822
vt 0.971731 0.158156
vt 0.990000 0.250000
vt 0.985388 0.203178
vt 0.883337 0.050447
vt 0.703178 0.014612
vt 0.658156 0.028269
vt 0.580294 0.080294
vt 0.580294 0.419706
vt 0.550447 0.116663
vt 0.550447 0.383337
vt 0.528269 0.158156
vt 0.514612 0.203178
vt 0.528269 0.341844
vt 0.510000 0.250000
vt 0.514612 0.296822
vn 0.0000 0.9957 0.0928
vn 0.0000 0.9612 0.2760
vn 0.0000 0.8923 0.4515
vn 0.0000 0.7897 0.6135
vn 0.0000 0.6550 0.7556
vn -0.0000 0.4916 0.8708
vn 0.0000 0.3051 0.9523
vn 0.0000 0.1035 0.9946
vn -0.0000 -0.1035 0.9946
vn 0.0000 -0.3051 0.9523
vn 0.0000 -0.4916 0.8708
vn 0.0000 -0.6550 0.7556
vn 0.0000 -0.7897 0.6135
vn 0.0000 -0.8923 0.4515
vn 0.0000 -0.9612 0.2760
vn 0.0000 -0.9957 0.0928
vn -0.0000 -0.9957 -0.0928
vn -0.0000 -0.9612 -0.2760
vn -0.0000 -0.8923 -0.4515
vn -0.0000 -0.7897 -0.6135
vn 0.0000 -0.6550 -0.7556
vn 0.0000 -0.4916 -0.8708
vn 0.0000 -0.3051 -0.9523
vn -0.0000 -0.1035 -0.9946
vn -0.0000 0.1035 -0.9946
vn -0.0000 0.3051 -0.9523
vn 0.0000 0.4916 -0.8708
vn -0.0000 0.6550 -0.7556
vn 0.0000 0.7897 -0.6135
vn -0.0000 0.8923 -0.4515
vn -1.0000 0.0000 0.0000
vn -0.0000 0.9612 -0.2760
vn -0.0000 0.9957 -0.0928
vn 1.0000 0.0000 0.0000
vn -1.0000 -0.0000 0.0001
vn 1.0000 0.0000 -0.0001
s off
f 2/1/1 3/2/1 1/3/1
f 4/4/2 5/5/2 3/2/2
f 6/6/3 7/7/3 5/5/3
f 8/8/4 9/9/4 7/7/4
f 10/10/5 11/11/5 9/9/5
f 12/12/6 13/13/6 11/11/6
f 14/14/7 15/15/7 13/13/7
f 16/16/8 17/17/8 15/15/8
f 18/18/9 19/19/9 17/17/9
f 20/20/10 21/21/10 19/19/10
f 22/22/11 23/23/11 21/21/11
f 24/24/12 25/25/12 23/23/12
f 26/26/13 27/27/13 25/25/13
f 28/28/14 29/29/14 27/27/14
f 30/30/15 31/31/15 29/29/15
f 32/32/16 33/33/16 31/31/16
f 34/34/17 35/35/17 33/33/17
f 36/36/18 37/37/18 35/35/18
f 38/38/19 39/39/19 37/37/19
f 40/40/20 41/41/20 39/39/20
f 42/42/21 43/43/21 41/41/21
f 44/44/22 45/45/22 43/43/22
f 46/46/23 47/47/23 45/45/23
f 48/48/24 49/49/24 47/47/24
f 50/50/25 51/51/25 49/49/25
f 52/52/26 53/53/26 51/51/26
f 54/54/27 55/55/27 53/53/27
f 56/56/28 57/57/28 55/55/28
f 58/58/29 59/59/29 57/57/29
f 60/60/30 61/61/30 59/59/30
f 10/62/31 8/63/31 26/64/31
f 62/65/32 63/66/32 61/61/32
f 64/67/33 1/68/33 63/66/33
f 59/69/34 61/70/34 39/71/34
f 2/1/1 4/4/1 3/2/1
f 4/4/2 6/6/2 5/5/2
f 6/6/3 8/8/3 7/7/3
f 8/8/4 10/10/4 9/9/4
f 10/10/5 12/12/5 11/11/5
f 12/12/6 14/14/6 13/13/6
f 14/14/7 16/16/7 15/15/7
f 16/16/8 18/18/8 17/17/8
f 18/18/9 20/20/9 19/19/9
f 20/20/10 22/22/10 21/21/10
f 22/22/11 24/24/11 23/23/11
f 24/24/12 26/26/12 25/25/12
f 26/26/13 28/28/13 27/27/13
f 28/28/14 30/30/14 29/29/14
f 30/30/15 32/32/15 31/31/15
f 32/32/16 34/34/16 33/33/16
f 34/34/17 36/36/17 35/35/17
f 36/36/18 38/38/18 37/37/18
f 38/38/19 40/40/19 39/39/19
f 40/40/20 42/42/20 41/41/20
f 42/42/21 44/44/21 43/43/21
f 44/44/22 46/46/22 45/45/22
f 46/46/23 48/48/23 47/47/23
f 48/48/24 50/50/24 49/49/24
f 50/50/25 52/52/25 51/51/25
f 52/52/26 54/54/26 53/53/26
f 54/54/27 56/56/27 55/55/27
f 56/56/28 58/58/28 57/57/28
f 58/58/29 60/60/29 59/59/29
f 60/60/30 62/65/30 61/61/30
f 6/72/31 4/73/31 32/74/31
f 4/73/31 2/75/31 34/76/31
f 2/75/31 64/77/31 36/78/31
f 64/77/31 62/79/31 38/80/31
f 62/79/31 60/81/31 38/80/31
f 60/81/31 58/82/31 40/83/31
f 38/80/31 60/81/31 40/83/31
f 58/82/31 56/84/31 42/85/31
f 56/84/31 54/86/31 44/87/31
f 42/85/31 56/84/31 44/87/31
f 54/86/31 52/88/31 48/89/31
f 52/88/35 50/90/35 48/89/35
f 48/89/31 46/91/31 54/86/31
f 46/91/31 44/87/31 54/86/31
f 42/85/31 40/83/31 58/82/31
f 38/80/31 36/78/31 64/77/31
f 36/78/31 34/76/31 2/75/31
f 34/76/31 32/74/31 4/73/31
f 32/74/31 30/92/31 6/72/31
f 30/92/31 28/93/31 6/72/31
f 28/93/31 26/64/31 8/63/31
f 6/72/31 28/93/31 8/63/31
f 26/64/31 24/94/31 10/62/31
f 24/94/31 22/95/31 12/96/31
f 10/62/31 24/94/31 12/96/31
f 22/95/31 20/97/31 14/98/31
f 20/97/31 18/99/31 16/100/31
f 14/98/31 20/97/31 16/100/31
f 14/98/31 12/96/31 22/95/31
f 62/65/32 64/67/32 63/66/32
f 64/67/33 2/101/33 1/68/33
f 63/102/34 1/103/34 33/104/34
f 1/103/34 3/105/34 31/106/34
f 3/105/34 5/107/34 31/106/34
f 5/107/34 7/108/34 29/109/34
f 31/106/34 5/107/34 29/109/34
f 7/108/34 9/110/34 25/111/34
f 9/110/34 11/112/34 23/113/34
f 11/112/34 13/114/34 23/113/34
f 13/114/34 15/115/34 21/116/34
f 23/113/34 13/114/34 21/116/34
f 15/115/36 17/117/36 19/118/36
f 19/118/34 21/116/34 15/115/34
f 23/113/34 25/111/34 9/110/34
f 25/111/34 27/119/34 7/108/34
f 27/119/34 29/109/34 7/108/34
f 31/106/34 33/104/34 1/103/34
f 33/104/34 35/120/34 63/102/34
f 35/120/34 37/121/34 63/102/34
f 37/121/34 39/71/34 61/70/34
f 63/102/34 37/121/34 61/70/34
f 39/71/34 41/122/34 57/123/34
f 41/122/34 43/124/34 55/125/34
f 43/124/34 45/126/34 55/125/34
f 45/126/34 47/127/34 53/128/34
f 55/125/34 45/126/34 53/128/34
f 47/127/34 49/129/34 51/130/34
f 51/130/34 53/128/34 47/127/34
f 55/125/34 57/123/34 41/122/34
f 57/123/34 59/69/34 39/71/34
o Cube_Cube.001
v -26.423065 -0.422584 -4.899170
v -26.805153 -0.422584 -4.899170
v -26.423065 0.427343 -4.899170
v -26.805153 0.427343 -4.899170
v -26.423065 -0.422584 4.749536
v -26.805153 -0.422584 4.749536
v -26.423065 0.427343 4.749536
v -26.805153 0.427343 4.749536
vt 0.625000 0.000000
vt 0.375000 0.250000
vt 0.375000 0.000000
vt 0.625000 0.250000
vt 0.375000 0.500000
vt 0.625000 0.500000
vt 0.375000 0.750000
vt 0.625000 0.750000
vt 0.375000 1.000000
vt 0.125000 0.750000
vt 0.125000 0.500000
vt 0.875000 0.500000
vt 0.625000 1.000000
vt 0.875000 0.750000
vn 0.0000 0.0000 -1.0000
vn 0.0000 1.0000 0.0000
vn 0.0000 0.0000 1.0000
vn 0.0000 -1.0000 0.0000
vn 1.0000 0.0000 0.0000
vn -1.0000 0.0000 0.0000
s off
f 66/131/37 67/132/37 65/133/37
f 68/134/38 71/135/38 67/132/38
f 72/136/39 69/137/39 71/135/39
f 70/138/40 65/139/40 69/137/40
f 71/135/41 65/140/41 67/141/41
f 68/142/42 70/138/42 72/136/42
f 66/131/37 68/134/37 67/132/37
f 68/134/38 72/136/38 71/135/38
f 72/136/39 70/138/39 69/137/39
f 70/138/40 66/143/40 65/139/40
f 71/135/41 69/137/41 65/140/41
f 68/142/42 66/144/42 70/138/42
