# Blender v3.2.2 OBJ File: 'seat.blend'
# www.blender.org
o seat_Cube.013
v -2.527474 -2.504198 0.119132
v -2.527474 -2.504198 -0.119132
v 2.527475 -2.504199 0.119133
v 2.527475 -2.504199 -0.119131
v -2.527475 2.439044 0.119132
v -2.527475 2.439044 -0.119132
v 2.527474 2.439042 0.119133
v 2.527474 2.439042 -0.119131
v -1.573876 -2.549091 6.132169
v -1.573876 -0.648729 6.132169
v -1.573877 -2.549091 -0.058355
v -1.573877 -0.648729 -0.058355
v 2.540280 -2.549092 6.132166
v 2.540280 -0.648729 6.132166
v 2.540279 -2.549092 -0.058356
v 2.540279 -0.648729 -0.058356
v -2.527477 11.777596 -0.102555
v -1.573879 11.777596 -0.102555
v -2.527473 -2.549093 -0.102557
v -1.573877 -2.549086 -0.102557
v -2.527476 11.777597 6.139810
v -1.573879 11.777597 6.139810
v -2.527473 -2.549097 6.139808
v -1.573876 -2.549097 6.139808
vt 0.625000 0.000000
vt 0.375000 0.250000
vt 0.375000 0.000000
vt 0.625000 0.250000
vt 0.375000 0.500000
vt 0.625000 0.500000
vt 0.375000 0.750000
vt 0.625000 0.750000
vt 0.375000 1.000000
vt 0.125000 0.750000
vt 0.125000 0.500000
vt 0.875000 0.750000
vt 0.625000 0.000000
vt 0.375000 0.250000
vt 0.375000 0.000000
vt 0.625000 0.250000
vt 0.375000 0.500000
vt 0.625000 0.500000
vt 0.375000 0.750000
vt 0.625000 0.750000
vt 0.375000 1.000000
vt 0.125000 0.500000
vt 0.125000 0.750000
vt 0.875000 0.500000
vt 0.375000 0.000000
vt 0.625000 0.250000
vt 0.375000 0.250000
vt 0.375000 0.500000
vt 0.625000 0.500000
vt 0.375000 0.750000
vt 0.625000 0.750000
vt 0.375000 1.000000
vt 0.125000 0.750000
vt 0.125000 0.500000
vt 0.875000 0.500000
vt 0.625000 1.000000
vt 0.875000 0.500000
vt 0.625000 1.000000
vt 0.875000 0.750000
vt 0.625000 0.000000
vt 0.625000 1.000000
vt 0.875000 0.750000
vn -0.0000 -1.0000 0.0000
vn 1.0000 0.0000 0.0000
vn 0.0000 1.0000 0.0000
vn -1.0000 -0.0000 0.0000
vn -0.0000 -0.0000 1.0000
vn 0.0000 0.0000 -1.0000
s off
f 2/1/1 3/2/1 1/3/1
f 4/4/2 7/5/2 3/2/2
f 8/6/3 5/7/3 7/5/3
f 6/8/4 1/9/4 5/7/4
f 7/5/5 1/10/5 3/11/5
f 8/6/6 2/12/6 6/8/6
f 10/13/4 11/14/4 9/15/4
f 12/16/6 15/17/6 11/14/6
f 16/18/2 13/19/2 15/17/2
f 14/20/5 9/21/5 13/19/5
f 11/22/1 13/19/1 9/23/1
f 12/24/3 14/20/3 16/18/3
f 17/25/6 20/26/6 19/27/6
f 20/26/1 23/28/1 19/27/1
f 24/29/5 21/30/5 23/28/5
f 22/31/3 17/32/3 21/30/3
f 23/28/4 17/33/4 19/34/4
f 20/35/2 22/31/2 24/29/2
f 2/1/1 4/4/1 3/2/1
f 4/4/2 8/6/2 7/5/2
f 8/6/3 6/8/3 5/7/3
f 6/8/4 2/36/4 1/9/4
f 7/5/5 5/7/5 1/10/5
f 8/6/6 4/37/6 2/12/6
f 10/13/4 12/16/4 11/14/4
f 12/16/6 16/18/6 15/17/6
f 16/18/2 14/20/2 13/19/2
f 14/20/5 10/38/5 9/21/5
f 11/22/1 15/17/1 13/19/1
f 12/24/3 10/39/3 14/20/3
f 17/25/6 18/40/6 20/26/6
f 20/26/1 24/29/1 23/28/1
f 24/29/5 22/31/5 21/30/5
f 22/31/3 18/41/3 17/32/3
f 23/28/4 21/30/4 17/33/4
f 20/35/2 18/42/2 22/31/2
