# Blender v3.2.2 OBJ File: 'thruster.blend'
# www.blender.org
o Cylinder
v -0.599400 4.844453 1.645849
v -0.790039 4.896122 0.045609
v -0.590749 4.785261 1.642907
v -0.781388 4.836931 0.042668
v -0.572657 4.729008 1.638935
v -0.763296 4.780678 0.038696
v -0.545819 4.677855 1.634086
v -0.736458 4.729524 0.033847
v -0.511266 4.633767 1.628546
v -0.701906 4.685437 0.028307
v -0.470327 4.598440 1.622529
v -0.660967 4.650110 0.022289
v -0.424575 4.573230 1.616264
v -0.615214 4.624900 0.016025
v -0.375767 4.559107 1.609993
v -0.566407 4.610777 0.009754
v -0.325780 4.556613 1.603958
v -0.516419 4.608283 0.003719
v -0.276534 4.565845 1.598389
v -0.467174 4.617514 -0.001850
v -0.229923 4.586446 1.593501
v -0.420562 4.638116 -0.006738
v -0.187736 4.617626 1.589483
v -0.378376 4.669296 -0.010757
v -0.151596 4.658187 1.586487
v -0.342235 4.709857 -0.013752
v -0.122891 4.706569 1.584629
v -0.313531 4.758239 -0.015610
v -0.102725 4.760914 1.583982
v -0.293364 4.812583 -0.016258
v -0.091872 4.819132 1.584568
v -0.282511 4.870802 -0.015671
v -0.090749 4.878988 1.586367
v -0.281388 4.930657 -0.013872
v -0.099400 4.938179 1.589309
v -0.290039 4.989849 -0.010930
v -0.117492 4.994432 1.593281
v -0.308131 5.046103 -0.006958
v -0.144330 5.045586 1.598130
v -0.334969 5.097256 -0.002109
v -0.178882 5.089674 1.603669
v -0.369522 5.141343 0.003430
v -0.219821 5.125000 1.609687
v -0.410461 5.176670 0.009448
v -0.265574 5.150210 1.615952
v -0.456213 5.201880 0.015713
v -0.314382 5.164333 1.622222
v -0.505021 5.216003 0.021983
v -0.364369 5.166827 1.628258
v -0.555008 5.218497 0.028019
v -0.413614 5.157596 1.633827
v -0.604254 5.209266 0.033588
v -0.460226 5.136994 1.638714
v -0.650866 5.188664 0.038475
v -0.502413 5.105814 1.642733
v -0.693052 5.157484 0.042494
v -0.538553 5.065254 1.645729
v -0.729192 5.116923 0.045490
v -0.567258 5.016871 1.647587
v -0.757897 5.068541 0.047347
v -0.587424 4.962527 1.648234
v -0.778064 5.014196 0.047995
v -0.598277 4.904308 1.647648
v -0.788917 4.955978 0.047408
vt 1.000000 1.000000
vt 0.968750 0.500000
vt 1.000000 0.500000
vt 0.968750 1.000000
vt 0.937500 0.500000
vt 0.937500 1.000000
vt 0.906250 0.500000
vt 0.906250 1.000000
vt 0.875000 0.500000
vt 0.875000 1.000000
vt 0.843750 0.500000
vt 0.843750 1.000000
vt 0.812500 0.500000
vt 0.812500 1.000000
vt 0.781250 0.500000
vt 0.781250 1.000000
vt 0.750000 0.500000
vt 0.750000 1.000000
vt 0.718750 0.500000
vt 0.718750 1.000000
vt 0.687500 0.500000
vt 0.687500 1.000000
vt 0.656250 0.500000
vt 0.656250 1.000000
vt 0.625000 0.500000
vt 0.625000 1.000000
vt 0.593750 0.500000
vt 0.593750 1.000000
vt 0.562500 0.500000
vt 0.562500 1.000000
vt 0.531250 0.500000
vt 0.531250 1.000000
vt 0.500000 0.500000
vt 0.500000 1.000000
vt 0.468750 0.500000
vt 0.468750 1.000000
vt 0.437500 0.500000
vt 0.437500 1.000000
vt 0.406250 0.500000
vt 0.406250 1.000000
vt 0.375000 0.500000
vt 0.375000 1.000000
vt 0.343750 0.500000
vt 0.343750 1.000000
vt 0.312500 0.500000
vt 0.312500 1.000000
vt 0.281250 0.500000
vt 0.281250 1.000000
vt 0.250000 0.500000
vt 0.250000 1.000000
vt 0.218750 0.500000
vt 0.218750 1.000000
vt 0.187500 0.500000
vt 0.187500 1.000000
vt 0.156250 0.500000
vt 0.156250 1.000000
vt 0.125000 0.500000
vt 0.125000 1.000000
vt 0.093750 0.500000
vt 0.093750 1.000000
vt 0.062500 0.500000
vt 0.419706 0.419706
vt 0.383337 0.449553
vt 0.419706 0.080294
vt 0.062500 1.000000
vt 0.031250 0.500000
vt 0.031250 1.000000
vt 0.000000 0.500000
vt 0.616663 0.449553
vt 0.658156 0.471731
vt 0.616663 0.050447
vt 0.341844 0.471731
vt 0.296822 0.485388
vt 0.296822 0.014612
vt 0.250000 0.490000
vt 0.250000 0.010000
vt 0.203178 0.485388
vt 0.203178 0.014612
vt 0.158156 0.471731
vt 0.158156 0.028269
vt 0.116663 0.449553
vt 0.080294 0.419706
vt 0.116663 0.050447
vt 0.050447 0.383337
vt 0.080294 0.080294
vt 0.028269 0.341844
vt 0.050447 0.116663
vt 0.014612 0.296822
vt 0.014612 0.203178
vt 0.010000 0.250000
vt 0.028269 0.158156
vt 0.341844 0.028269
vt 0.383337 0.050447
vt 0.449553 0.116663
vt 0.471731 0.158156
vt 0.449553 0.383337
vt 0.485388 0.203178
vt 0.471731 0.341844
vt 0.490000 0.250000
vt 0.485388 0.296822
vt 0.000000 1.000000
vt 0.703178 0.485388
vt 0.750000 0.490000
vt 0.750000 0.010000
vt 0.796822 0.485388
vt 0.796822 0.014612
vt 0.841844 0.471731
vt 0.883337 0.449553
vt 0.841844 0.028269
vt 0.919706 0.419706
vt 0.919706 0.080294
vt 0.949553 0.383337
vt 0.949553 0.116663
vt 0.971731 0.341844
vt 0.985388 0.296822
vt 0.971731 0.158156
vt 0.990000 0.250000
vt 0.985388 0.203178
vt 0.883337 0.050447
vt 0.703178 0.014612
vt 0.658156 0.028269
vt 0.580294 0.080294
vt 0.580294 0.419706
vt 0.550447 0.116663
vt 0.550447 0.383337
vt 0.528269 0.158156
vt 0.514612 0.203178
vt 0.528269 0.341844
vt 0.510000 0.250000
vt 0.514612 0.296822
vn -0.9824 -0.1492 0.1122
vn -0.9448 -0.3111 0.1025
vn -0.8785 -0.4694 0.0895
vn -0.7805 -0.6209 0.0729
vn -0.6480 -0.7599 0.0527
vn -0.4794 -0.8771 0.0288
vn -0.2777 -0.9607 0.0021
vn -0.0529 -0.9983 -0.0259
vn 0.1782 -0.9826 -0.0530
vn 0.3963 -0.9149 -0.0768
vn 0.5857 -0.8048 -0.0958
vn 0.7381 -0.6657 -0.1094
vn 0.8520 -0.5100 -0.1180
vn 0.9301 -0.3466 -0.1220
vn 0.9759 -0.1807 -0.1221
vn 0.9928 -0.0151 -0.1188
vn 0.9824 0.1492 -0.1122
vn 0.9448 0.3111 -0.1025
vn 0.8785 0.4694 -0.0895
vn 0.7805 0.6209 -0.0729
vn 0.6480 0.7599 -0.0527
vn 0.4794 0.8771 -0.0288
vn 0.2777 0.9607 -0.0021
vn 0.0529 0.9983 0.0259
vn -0.1782 0.9826 0.0530
vn -0.3963 0.9149 0.0768
vn -0.5857 0.8048 0.0958
vn -0.7381 0.6658 0.1094
vn -0.8520 0.5100 0.1180
vn -0.9301 0.3466 0.1220
vn -0.1182 0.0320 -0.9925
vn -0.9759 0.1807 0.1221
vn -0.9928 0.0151 0.1188
vn 0.1182 -0.0320 0.9925
vn 0.7381 -0.6658 -0.1094
vn -0.7381 0.6657 0.1094
vn -0.1182 0.0321 -0.9925
vn -0.1183 0.0321 -0.9925
vn 0.1183 -0.0320 0.9925
s off
f 2/1/1 3/2/1 1/3/1
f 4/4/2 5/5/2 3/2/2
f 6/6/3 7/7/3 5/5/3
f 8/8/4 9/9/4 7/7/4
f 10/10/5 11/11/5 9/9/5
f 12/12/6 13/13/6 11/11/6
f 14/14/7 15/15/7 13/13/7
f 16/16/8 17/17/8 15/15/8
f 18/18/9 19/19/9 17/17/9
f 20/20/10 21/21/10 19/19/10
f 22/22/11 23/23/11 21/21/11
f 24/24/12 25/25/12 23/23/12
f 26/26/13 27/27/13 25/25/13
f 28/28/14 29/29/14 27/27/14
f 30/30/15 31/31/15 29/29/15
f 32/32/16 33/33/16 31/31/16
f 34/34/17 35/35/17 33/33/17
f 36/36/18 37/37/18 35/35/18
f 38/38/19 39/39/19 37/37/19
f 40/40/20 41/41/20 39/39/20
f 42/42/21 43/43/21 41/41/21
f 44/44/22 45/45/22 43/43/22
f 46/46/23 47/47/23 45/45/23
f 48/48/24 49/49/24 47/47/24
f 50/50/25 51/51/25 49/49/25
f 52/52/26 53/53/26 51/51/26
f 54/54/27 55/55/27 53/53/27
f 56/56/28 57/57/28 55/55/28
f 58/58/29 59/59/29 57/57/29
f 60/60/30 61/61/30 59/59/30
f 10/62/31 8/63/31 26/64/31
f 62/65/32 63/66/32 61/61/32
f 64/67/33 1/68/33 63/66/33
f 59/69/34 61/70/34 39/71/34
f 2/1/1 4/4/1 3/2/1
f 4/4/2 6/6/2 5/5/2
f 6/6/3 8/8/3 7/7/3
f 8/8/4 10/10/4 9/9/4
f 10/10/5 12/12/5 11/11/5
f 12/12/6 14/14/6 13/13/6
f 14/14/7 16/16/7 15/15/7
f 16/16/8 18/18/8 17/17/8
f 18/18/9 20/20/9 19/19/9
f 20/20/10 22/22/10 21/21/10
f 22/22/11 24/24/11 23/23/11
f 24/24/35 26/26/35 25/25/35
f 26/26/13 28/28/13 27/27/13
f 28/28/14 30/30/14 29/29/14
f 30/30/15 32/32/15 31/31/15
f 32/32/16 34/34/16 33/33/16
f 34/34/17 36/36/17 35/35/17
f 36/36/18 38/38/18 37/37/18
f 38/38/19 40/40/19 39/39/19
f 40/40/20 42/42/20 41/41/20
f 42/42/21 44/44/21 43/43/21
f 44/44/22 46/46/22 45/45/22
f 46/46/23 48/48/23 47/47/23
f 48/48/24 50/50/24 49/49/24
f 50/50/25 52/52/25 51/51/25
f 52/52/26 54/54/26 53/53/26
f 54/54/27 56/56/27 55/55/27
f 56/56/36 58/58/36 57/57/36
f 58/58/29 60/60/29 59/59/29
f 60/60/30 62/65/30 61/61/30
f 6/72/31 4/73/31 32/74/31
f 4/73/31 2/75/31 34/76/31
f 2/75/31 64/77/31 36/78/31
f 64/77/31 62/79/31 38/80/31
f 62/79/31 60/81/31 38/80/31
f 60/81/31 58/82/31 40/83/31
f 38/80/31 60/81/31 40/83/31
f 58/82/31 56/84/31 42/85/31
f 56/84/31 54/86/31 44/87/31
f 42/85/31 56/84/31 44/87/31
f 54/86/31 52/88/31 48/89/31
f 52/88/37 50/90/37 48/89/37
f 48/89/31 46/91/31 54/86/31
f 46/91/31 44/87/31 54/86/31
f 42/85/31 40/83/31 58/82/31
f 38/80/31 36/78/31 64/77/31
f 36/78/31 34/76/31 2/75/31
f 34/76/31 32/74/31 4/73/31
f 32/74/31 30/92/31 6/72/31
f 30/92/31 28/93/31 6/72/31
f 28/93/31 26/64/31 8/63/31
f 6/72/31 28/93/31 8/63/31
f 26/64/31 24/94/31 10/62/31
f 24/94/31 22/95/31 12/96/31
f 10/62/31 24/94/31 12/96/31
f 22/95/31 20/97/31 14/98/31
f 20/97/38 18/99/38 16/100/38
f 14/98/31 20/97/31 16/100/31
f 14/98/31 12/96/31 22/95/31
f 62/65/32 64/67/32 63/66/32
f 64/67/33 2/101/33 1/68/33
f 63/102/34 1/103/34 33/104/34
f 1/103/34 3/105/34 31/106/34
f 3/105/34 5/107/34 31/106/34
f 5/107/34 7/108/34 29/109/34
f 31/106/34 5/107/34 29/109/34
f 7/108/34 9/110/34 25/111/34
f 9/110/34 11/112/34 23/113/34
f 11/112/34 13/114/34 23/113/34
f 13/114/34 15/115/34 21/116/34
f 23/113/34 13/114/34 21/116/34
f 15/115/34 17/117/34 19/118/34
f 19/118/34 21/116/34 15/115/34
f 23/113/34 25/111/34 9/110/34
f 25/111/34 27/119/34 7/108/34
f 27/119/34 29/109/34 7/108/34
f 31/106/34 33/104/34 1/103/34
f 33/104/34 35/120/34 63/102/34
f 35/120/34 37/121/34 63/102/34
f 37/121/34 39/71/34 61/70/34
f 63/102/34 37/121/34 61/70/34
f 39/71/34 41/122/34 57/123/34
f 41/122/34 43/124/34 55/125/34
f 43/124/34 45/126/34 55/125/34
f 45/126/34 47/127/34 53/128/34
f 55/125/34 45/126/34 53/128/34
f 47/127/39 49/129/39 51/130/39
f 51/130/34 53/128/34 47/127/34
f 55/125/34 57/123/34 41/122/34
f 57/123/34 59/69/34 39/71/34
o Cube_Cube.001
v -0.304702 5.249826 -0.000789
v -0.324424 5.255172 -0.166338
v -0.742172 5.220124 0.050369
v -0.761894 5.225470 -0.115180
v 0.018979 0.131372 -0.204618
v -0.000743 0.136717 -0.370167
v -0.418490 0.101670 -0.153460
v -0.438213 0.107015 -0.319009
vt 0.625000 0.000000
vt 0.375000 0.250000
vt 0.375000 0.000000
vt 0.625000 0.250000
vt 0.375000 0.500000
vt 0.625000 0.500000
vt 0.375000 0.750000
vt 0.625000 0.750000
vt 0.375000 1.000000
vt 0.125000 0.750000
vt 0.125000 0.500000
vt 0.875000 0.500000
vt 0.625000 1.000000
vt 0.875000 0.750000
vn -0.0631 0.9972 0.0397
vn -0.9910 -0.0673 0.1159
vn 0.0631 -0.9972 -0.0397
vn 0.9910 0.0673 -0.1159
vn 0.1182 -0.0320 0.9925
vn -0.1182 0.0320 -0.9925
s off
f 66/131/40 67/132/40 65/133/40
f 68/134/41 71/135/41 67/132/41
f 72/136/42 69/137/42 71/135/42
f 70/138/43 65/139/43 69/137/43
f 71/135/44 65/140/44 67/141/44
f 68/142/45 70/138/45 72/136/45
f 66/131/40 68/134/40 67/132/40
f 68/134/41 72/136/41 71/135/41
f 72/136/42 70/138/42 69/137/42
f 70/138/43 66/143/43 65/139/43
f 71/135/44 69/137/44 65/140/44
f 68/142/45 66/144/45 70/138/45
